<svg xmlns="http://www.w3.org/2000/svg" width="208.941" height="58.534" fill-rule="evenodd" clip-rule="evenodd" image-rendering="optimizeQuality" shape-rendering="geometricPrecision" text-rendering="geometricPrecision" viewBox="0 0 2176 610">
  <defs>
    <style>
      .fil0,.fil1{fill:#000;fill-rule:nonzero}.fil1{fill:#e2231a}
    </style>
  </defs>
  <g id="__x0023_Layer_x0020_1">
    <path d="M606 103H465v286h141c78 0 133-65 133-143s-55-143-133-143zm-13 223h-47V166h47c40 0 63 39 63 80s-23 80-63 80zm175 61V105h217v63H850v49h121v61H850v47h135v62zm1117 0V105h216v63h-134v49h121v61h-121v47h134v62zm-852 0V105h83v220h118v62zm220-282h83v166c0 32 13 55 49 55 31 0 49-22 49-55V105h83v159c0 90-55 130-132 130-70 0-132-33-132-130V105zm595 1h-100l-49 69-49-69h-99l98 140-98 141h99l49-70 49 70h100l-99-141z" class="fil0"/>
    <path d="M86 167H0v174h86c47 0 86-39 86-87 0-47-38-87-86-87z" class="fil1"/>
    <path d="M113 104c69 0 131 62 131 150 0 54-26 100-65 132h85c61-36 97-95 97-174S313 1 140 1H0v104h113zm235 242c-11 0-21 9-21 21 0 11 9 21 21 21 11 0 21-9 21-21 0-11-9-21-21-21zm0 45c-14 0-25-11-25-25s11-25 25-25 25 11 25 25-11 25-25 25z" class="fil1"/>
    <path d="M340 355h10c3 0 5 1 7 2 1 1 2 3 2 5 0 4-2 6-5 7l6 9h-5l-6-8h-5v8h-4v-23zm10 11c3 0 5-2 5-4s-2-4-5-4h-6v8h6z" class="fil1"/>
    <path d="M6 503h75v11H17v37h57v11H17v46H6zm75 66c0-22 17-41 41-41 23 0 40 18 40 40s-17 41-41 41c-23 0-40-18-40-40zm69 0c0-17-12-30-29-30s-28 14-28 30c0 17 12 30 29 30s29-14 29-30zm28-39h12v20c6-13 17-22 32-22v12h-1c-17 0-31 12-31 36v31h-12v-78zm109 57v-47h-11v-10h11v-23h12v23h25v10h-25v45c0 9 5 13 13 13 4 0 7-1 11-3v10c-4 2-8 3-14 3-12 0-22-6-22-22zm54-89h12v45c5-8 13-15 27-15 19 0 30 13 30 31v48h-12v-45c0-14-8-23-21-23s-23 10-23 24v44h-12V497zm81 71c0-22 16-40 37-40 23 0 36 18 36 41v4h-62c2 17 14 26 27 26 11 0 18-4 24-11l7 6c-8 9-17 15-32 15-21 0-39-16-39-40zm62-5c-1-14-9-26-25-26-14 0-24 11-25 26h50zm78-66h11v110h-11zm28 71c0-22 17-41 41-41 23 0 40 18 40 40s-17 41-41 41c-23 0-40-18-40-40zm69 0c0-17-12-30-29-30s-28 14-28 30c0 17 12 30 29 30s29-14 29-30zm15-39h13l26 65 27-65h12l-34 79h-10zm81 39c0-22 16-40 37-40 23 0 36 18 36 41v4h-62c2 17 14 26 27 26 11 0 18-4 24-11l7 6c-8 9-17 15-32 15-21 0-39-16-39-40zm62-5c-1-14-9-26-25-26-14 0-24 11-25 26h50zm71 5c0-22 17-41 41-41 23 0 40 18 40 40s-17 41-41 41c-23 0-40-18-40-40zm69 0c0-17-12-30-29-30s-28 14-28 30c0 17 12 30 29 30s29-14 29-30zm31-28h-11v-10h11v-7c0-9 2-16 7-20 4-4 10-6 17-6 5 0 9 1 13 2v10c-4-1-7-2-11-2-9 0-14 5-14 17v6h25v10h-24v67h-12v-67zm89 57l6-8c8 6 18 10 27 10s16-5 16-12c0-8-9-11-19-14-12-3-26-8-26-22 0-13 11-22 26-22 9 0 20 3 28 9l-5 9c-7-5-15-8-23-8-9 0-15 5-15 11 0 7 10 10 20 13 12 4 25 8 25 22 0 15-12 23-28 23-11 0-23-4-32-11zm79-68h12v13c5-8 12-15 25-15s21 7 25 15c6-9 14-15 27-15 18 0 29 12 29 31v48h-12v-45c0-15-8-23-20-23s-21 9-21 24v45h-12v-46c0-15-8-23-20-23s-22 10-22 24v44h-12v-78zm132 55c0-16 14-25 33-25 10 0 17 1 24 3v-3c0-14-9-21-23-21-9 0-16 2-24 6l-3-9c9-4 17-6 28-6s19 3 25 9c5 5 8 13 8 23v47h-11v-12c-5 7-14 13-28 13s-29-8-29-24zm57-6v-8c-6-2-13-3-23-3-15 0-23 6-23 16s9 15 20 15c14 0 26-9 26-21zm35-81h12v110h-12zm39 0h11v110h-11zm95 95v15h-12V498h12v48c6-9 15-17 30-17 19 0 37 15 37 40s-18 40-37 40c-14 0-24-8-30-17zm55-24c0-18-13-30-27-30s-28 12-28 30 14 30 28 30c15 0 27-11 27-30zm27 9v-48h12v45c0 14 8 23 21 23s23-10 23-24v-44h11v78h-11v-14c-5 8-13 15-27 15-19 0-30-13-30-31zm86 20l6-8c8 6 18 10 27 10s16-5 16-12c0-8-9-11-19-14-12-3-26-8-26-22 0-13 11-22 26-22 9 0 20 3 28 9l-5 9c-7-5-15-8-23-8-9 0-15 5-15 11 0 7 10 10 20 13 12 4 25 8 25 22 0 15-12 23-28 23-11 0-23-4-32-11zm79-97h13v13h-13v-13zm1 30h12v78h-12v-78zm37-1h12v14c5-8 13-15 27-15 19 0 30 13 30 31v48h-12v-45c0-14-8-23-21-23s-23 10-23 24v44h-12v-78zm81 39c0-22 16-40 37-40 23 0 36 18 36 41v4h-62c2 17 14 26 27 26 11 0 18-4 24-11l7 6c-8 9-17 15-32 15-21 0-39-16-39-40zm62-5c-1-14-9-26-25-26-13 0-24 11-25 26h50zm24 34l6-8c8 6 18 10 27 10s16-5 16-12c0-8-9-11-19-14-12-3-26-8-26-22 0-13 11-22 26-22 9 0 20 3 28 9l-5 9c-7-5-15-8-23-8-9 0-15 5-15 11 0 7 10 10 20 13 12 4 25 8 25 22 0 15-12 23-28 23-11 0-23-4-32-11zm74 0l6-8c8 6 18 10 27 10s16-5 16-12c0-8-9-11-19-14-12-3-26-8-26-22 0-13 11-22 26-22 9 0 20 3 28 9l-5 9c-7-5-15-8-23-8-9 0-15 5-15 11 0 7 10 10 20 13 12 4 25 8 25 22 0 15-12 23-28 23-11 0-23-4-32-11zm74-6h14v16h-14zm15-85c-1-5-4-7-9-7-4 0-8 1-8 6 0 4 6 5 12 6s12 3 12 10c0 8-8 11-14 11-8 0-15-4-15-13h5c0 6 5 9 11 9 4 0 9-1 9-7 0-5-6-6-12-7s-12-3-12-10 6-11 13-11 13 3 13 11h-5zm12-10h6l12 30 11-30h6v36h-4v-30l-11 30h-4l-12-30v30h-4z" class="fil0"/>
  </g>
</svg>
